HIERARCHY
ROOT Hips
{
	OFFSET 0.00 0.00 0.00
	CHANNELS 6 Xposition Yposition Zposition Xrotation Yrotation Zrotation
	JOINT Spine
	{
		OFFSET 0.00000 7.06766 0.00000
		CHANNELS 3 Xrotation Yrotation Zrotation
		JOINT Head
		{
			OFFSET 0.00000 15.03989 0.00000
			CHANNELS 3 Xrotation Yrotation Zrotation
			End Site
			{
				OFFSET 0.00000 4.52755 0.00000
			}
		}
		JOINT LeftShoulder
		{
			OFFSET 0.00000 10.53037 0.00000
			CHANNELS 3 Xrotation Yrotation Zrotation
			JOINT LeftArm
			{
				OFFSET 7.02886 0.00000 0.00000
				CHANNELS 3 Xrotation Yrotation Zrotation
				JOINT LeftForeArm
				{
					OFFSET 10.79770 0.00000 0.00000
					CHANNELS 3 Yrotation Zrotation Xrotation
					JOINT LeftHand
					{
						OFFSET 7.90744 0.00000 0.00000
						CHANNELS 3 Xrotation Yrotation Zrotation
						JOINT LeftHandThumb1
						{
							OFFSET 0.00000 0.00000 0.00000
							CHANNELS 3 Xrotation Zrotation Yrotation
							End Site
							{
								OFFSET 0.00000 0.00000 3.93700
							}
						}
						End Site
						{
							OFFSET 3.93700 0.00000 0.00000
						}
					}
				}
			}
		}
		JOINT RightShoulder
		{
			OFFSET 0.00000 10.53037 0.00000
			CHANNELS 3 Xrotation Yrotation Zrotation
			JOINT RightArm
			{
				OFFSET -7.02886 0.00000 0.00000
				CHANNELS 3 Xrotation Yrotation Zrotation
				JOINT RightForeArm
				{
					OFFSET -10.79770 0.00000 0.00000
					CHANNELS 3 Yrotation Zrotation Xrotation
					JOINT RightHand
					{
						OFFSET -7.90744 0.00000 0.00000
						CHANNELS 3 Xrotation Yrotation Zrotation
						JOINT RightHandThumb1
						{
							OFFSET 0.00000 0.00000 0.00000
							CHANNELS 3 Xrotation Zrotation Yrotation
							End Site
							{
								OFFSET 0.00000 0.00000 3.93700
							}
						}
						End Site
						{
							OFFSET -3.93700 0.00000 0.00000
						}
					}
				}
			}
		}
	}
	JOINT LeftUpLeg
	{
		OFFSET 4.01300 0.00000 0.00000
		CHANNELS 3 Xrotation Yrotation Zrotation
		JOINT LeftLeg
		{
			OFFSET 0.00000 -16.89976 0.00000
			CHANNELS 3 Xrotation Yrotation Zrotation
			JOINT LeftFoot
			{
				OFFSET 0.00000 -17.38918 0.00000
				CHANNELS 3 Xrotation Yrotation Zrotation
				JOINT LeftToeBase
				{
					OFFSET 0.00000 -1.27456 4.75673
					CHANNELS 3 Xrotation Yrotation Zrotation
					End Site
					{
						OFFSET 0.00000 0.00000 2.95275
					}
				}
			}
		}
	}
	JOINT RightUpLeg
	{
		OFFSET -4.01300 0.00000 0.00000
		CHANNELS 3 Xrotation Yrotation Zrotation
		JOINT RightLeg
		{
			OFFSET 0.00000 -16.89976 0.00000
			CHANNELS 3 Xrotation Yrotation Zrotation
			JOINT RightFoot
			{
				OFFSET 0.00000 -17.38918 0.00000
				CHANNELS 3 Xrotation Yrotation Zrotation
				JOINT RightToeBase
				{
					OFFSET 0.00000 -1.27456 4.75673
					CHANNELS 3 Xrotation Yrotation Zrotation
					End Site
					{
						OFFSET 0.00000 0.00000 2.95275
					}
				}
			}
		}
	}
}
MOTION
Frames: 17
Frame Time: 0.008333
 15.4801 14.4319 -22.9795 94.1497 7.5370 -91.4283 1.7486 -0.4265 -0.2168 41.3354 -5.1308 -2.5822 -24.2557 4.4650 7.8915 7.8384 -60.6456 -29.4447 -58.6184 -0.0000 10.7883 0.0549 -0.0192 70.7121 33.1476 -0.0000 26.2537 11.6512 -9.8107 -7.4161 -26.4949 46.9702 31.1981 65.6362 0.0000 30.6057 -5.4698 -2.7293 -63.5599 32.8623 0.0000 -24.3270 -10.5304 1.6966 -2.6644 5.5939 0.0000 0.0000 -12.8857 30.2081 3.9551 -28.5365 0.0000 0.0000 -8.6775 3.8008 6.0691 3.7936 -0.0000 0.0000 -23.6888 -31.2160 -2.2309 -20.3779 0.0000 0.0000
 15.4238 14.5888 -22.9653 94.1754 7.8492 -91.3604 2.1826 -0.4523 -0.3426 41.3609 -5.0550 -2.4557 -24.4133 4.1912 7.7876 7.0026 -61.0547 -30.0099 -56.9603 -0.0000 10.5691 0.1736 -0.0605 70.7818 33.1476 -0.0000 26.2537 11.4408 -9.5020 -7.4429 -27.0063 47.4226 31.4417 64.1594 0.0000 30.3426 -5.3770 -2.6159 -64.1315 32.8623 0.0000 -24.3270 -10.5341 1.5621 -2.6838 5.6919 -0.0000 -0.0000 -12.5531 30.0644 3.8339 -28.9347 0.0000 -0.0000 -8.6244 3.8908 6.0053 3.7143 0.0000 -0.0000 -23.5297 -31.2121 -2.5349 -20.7047 -0.0000 0.0000
 15.3686 14.7464 -22.9528 94.2479 8.1465 -91.3291 2.6010 -0.4658 -0.3929 41.3779 -5.0561 -2.3831 -24.6517 3.8370 7.6196 6.1616 -61.3698 -30.6920 -55.3266 -0.0000 10.4057 0.3044 -0.1070 70.6348 33.1476 -0.0000 26.2537 11.1009 -9.2287 -7.5293 -27.3655 47.8287 31.7007 62.7614 0.0000 30.1042 -5.3654 -2.5795 -64.3963 32.8623 0.0000 -24.3270 -10.5426 1.2650 -2.6932 5.7473 0.0000 -0.0000 -12.2182 30.0337 3.6298 -29.7198 0.0000 -0.0000 -8.6198 3.7153 5.9523 3.7418 0.0000 -0.0000 -23.2866 -31.1086 -2.6096 -21.0428 -0.0000 0.0000
 15.3109 14.9051 -22.9382 94.3103 8.4513 -91.3076 3.0432 -0.4375 -0.4399 41.3528 -5.0443 -2.2431 -24.8077 3.5344 7.4260 5.3815 -61.8657 -31.1568 -53.5590 -0.0000 10.1166 0.3605 -0.1269 70.6145 33.1476 -0.0000 26.2537 10.7764 -9.0169 -7.6040 -27.7903 48.2853 31.9621 61.2808 0.0000 29.8418 -5.2762 -2.4935 -64.7740 32.8623 0.0000 -24.3270 -10.5496 0.9923 -2.6810 5.8207 -0.0000 -0.0000 -11.9119 29.8935 3.7280 -29.7654 -0.0000 0.0000 -8.5848 3.7827 5.9281 3.6938 -0.0000 -0.0000 -23.1345 -31.2010 -2.8292 -21.1548 -0.0000 0.0000
 15.2554 15.0612 -22.9260 94.3409 8.7217 -91.2192 3.4027 -0.5298 -0.5646 41.2762 -5.0648 -2.3755 -24.9866 3.3191 7.2874 4.6219 -62.3097 -31.6624 -51.7777 -0.0000 9.9475 0.3896 -0.1367 70.6633 33.1476 -0.0000 26.2537 10.5659 -8.6930 -7.6575 -28.3215 48.8640 32.2346 59.6330 0.0000 29.4091 -5.0346 -2.3306 -65.2220 32.8623 0.0000 -24.3270 -10.5917 0.8430 -2.7218 5.8888 0.0000 0.0000 -11.3381 29.7424 3.3139 -30.9598 -0.0000 0.0000 -8.6492 3.4717 5.8303 3.8661 -0.0000 0.0000 -23.0267 -30.9223 -2.8420 -21.2057 0.0000 -0.0000
 15.2009 15.2149 -22.9140 94.3359 9.0637 -91.1334 3.8610 -0.5153 -0.6765 41.2260 -5.0755 -2.3448 -25.1805 3.0609 7.1132 3.7554 -62.7725 -32.2583 -49.9327 -0.0000 9.8184 0.4463 -0.1578 70.5287 33.1476 -0.0000 26.2537 10.1519 -8.3651 -7.7147 -28.5750 49.3376 32.4305 58.1099 0.0000 29.1880 -4.9799 -2.2867 -65.3967 32.8623 0.0000 -24.3270 -10.5822 0.8473 -2.7492 6.0359 0.0000 0.0000 -10.9441 29.5090 3.1498 -31.6616 0.0000 -0.0000 -8.6107 3.4318 5.7519 3.9222 0.0000 -0.0000 -22.9200 -30.9308 -2.8724 -21.3157 -0.0000 -0.0000
 15.1472 15.3728 -22.9049 94.3437 9.3928 -91.0543 4.3244 -0.5207 -0.7578 41.1509 -5.1454 -2.3561 -25.4230 2.7763 6.9225 2.9566 -63.2031 -32.8354 -48.0600 -0.0000 9.6320 0.6234 -0.2218 70.4202 33.1476 -0.0000 26.2537 9.9517 -8.0983 -7.7095 -29.0397 49.9134 32.5657 56.5099 0.0000 28.9038 -4.9741 -2.2424 -65.7925 32.8623 0.0000 -24.3270 -10.5333 0.6347 -2.7896 6.0477 0.0000 0.0000 -10.5441 29.4500 3.1258 -32.1410 0.0000 -0.0000 -8.5653 3.4662 5.6695 3.9256 0.0000 0.0000 -22.7744 -30.9770 -2.9343 -21.3140 0.0000 0.0000
 15.0923 15.5317 -22.8941 94.3235 9.7320 -90.9503 4.8107 -0.4458 -0.8864 41.0481 -5.2156 -2.2534 -25.5953 2.4567 6.7441 2.0082 -63.7155 -33.4604 -46.0670 -0.0000 9.4135 0.7324 -0.2599 70.4618 33.1476 -0.0000 26.2537 9.7219 -7.8592 -7.7713 -29.6459 50.4178 32.9164 54.7853 0.0000 28.4647 -4.5961 -2.0292 -66.2285 32.8623 0.0000 -24.3270 -10.4921 0.5443 -2.8399 6.0983 0.0000 0.0000 -10.2131 29.3379 3.1839 -32.4922 0.0000 0.0000 -8.5250 3.5337 5.5772 3.9477 -0.0000 0.0000 -22.6116 -30.9874 -3.0847 -21.4224 -0.0000 0.0000
 15.0364 15.6969 -22.8834 94.2800 9.9499 -90.7931 5.1487 -0.4489 -1.0783 40.9044 -5.2048 -2.2377 -25.8857 2.1919 6.6581 1.2596 -64.2447 -34.0448 -44.0917 -0.0000 9.0953 0.8019 -0.2834 70.5368 33.1476 -0.0000 26.2537 9.5016 -7.5448 -7.8064 -30.2950 50.9528 33.3163 53.0945 0.0000 28.0552 -4.3512 -1.8889 -66.5779 32.8623 0.0000 -24.3270 -10.5972 0.5320 -2.9294 6.1827 0.0000 -0.0000 -9.6178 29.2355 2.7837 -33.8804 0.0000 -0.0000 -8.6512 3.5804 5.4461 4.0442 -0.0000 -0.0000 -22.5025 -30.9675 -3.1560 -21.2901 -0.0000 0.0000
 14.9824 15.8568 -22.8723 94.2550 10.2750 -90.6659 5.6386 -0.4341 -1.2346 40.7124 -5.2728 -2.2046 -26.1248 1.8432 6.5737 0.2901 -64.7054 -34.8050 -42.0984 -0.0000 8.7013 0.9194 -0.3238 70.6013 33.1476 -0.0000 26.2537 9.1734 -7.2014 -7.9083 -30.9157 51.3505 33.8185 51.4786 0.0000 27.7980 -4.2111 -1.8156 -66.7182 32.8623 0.0000 -24.3270 -10.5901 0.5751 -2.9912 6.2752 0.0000 -0.0000 -9.2067 29.0376 2.6112 -34.5076 -0.0000 0.0000 -8.6327 3.5597 5.3371 4.0799 -0.0000 0.0000 -22.2696 -30.9770 -3.1424 -21.4840 0.0000 -0.0000
 14.9266 16.0197 -22.8573 94.1980 10.4996 -90.5366 6.0007 -0.4388 -1.3775 40.5456 -5.2899 -2.2315 -26.3235 1.5070 6.4873 -0.6003 -65.0849 -35.4885 -40.1472 -0.0000 8.4255 1.0153 -0.3566 70.6493 33.1476 -0.0000 26.2537 9.0685 -6.8698 -7.9849 -31.7745 51.7826 34.3323 49.8380 0.0000 27.5278 -3.9853 -1.6983 -66.9552 32.8623 0.0000 -24.3270 -10.6900 0.6448 -3.0374 6.3803 -0.0000 0.0000 -8.8808 28.8049 2.6373 -34.7654 0.0000 -0.0000 -8.7456 3.6167 5.2524 4.1385 0.0000 -0.0000 -22.0182 -31.0625 -3.2441 -21.6356 0.0000 0.0000
 14.8712 16.1821 -22.8397 94.1247 10.7843 -90.4349 6.4820 -0.3547 -1.4893 40.2593 -5.3026 -2.1923 -26.5460 1.0678 6.3949 -1.3189 -65.4653 -35.9728 -38.2499 -0.0000 8.0012 1.1139 -0.3891 70.7488 33.1476 -0.0000 26.2537 8.8193 -6.6293 -8.0640 -32.5058 52.2987 34.8075 48.1492 0.0000 27.2517 -3.8945 -1.6357 -67.2517 32.8623 0.0000 -24.3270 -10.7892 0.8661 -3.0483 6.6069 -0.0000 0.0000 -8.5583 28.4690 2.5994 -35.3868 0.0000 -0.0000 -8.8053 3.6278 5.2074 4.2191 0.0000 -0.0000 -21.7322 -31.1216 -3.2727 -21.8524 -0.0000 0.0000
 14.8167 16.3448 -22.8252 94.0914 11.0703 -90.3379 6.9610 -0.3209 -1.5794 39.9823 -5.4603 -2.2361 -26.7533 0.5722 6.2494 -1.3267 -65.8666 -35.7094 -36.4813 -0.0000 7.3980 1.3057 -0.4624 70.5029 33.1476 -0.0000 26.2537 8.6650 -6.3959 -8.1077 -33.3092 52.9299 35.2024 46.2937 0.0000 26.9248 -3.7488 -1.5433 -67.6558 32.8623 0.0000 -24.3270 -10.8181 0.8942 -3.0824 6.6815 0.0000 0.0000 -8.1887 28.3154 2.5387 -35.7039 -0.0000 0.0000 -8.8482 3.5668 5.1452 4.2847 0.0000 -0.0000 -21.4424 -31.1180 -3.2967 -21.9760 0.0000 -0.0000
 14.7610 16.5102 -22.8083 93.9879 11.2588 -90.2082 7.3117 -0.3140 -1.7117 39.7721 -5.3582 -2.2404 -26.9477 0.1343 6.1607 -1.2341 -66.2728 -35.3806 -34.7168 -0.0000 6.8274 1.3552 -0.4820 70.4226 33.1476 -0.0000 26.2537 8.3882 -6.0315 -8.1826 -33.9416 53.4812 35.6094 44.5775 0.0000 26.6408 -3.6800 -1.4954 -67.9143 32.8623 0.0000 -24.3270 -10.9255 0.9662 -3.1235 6.7159 0.0000 -0.0000 -7.7829 28.2114 2.4659 -36.0544 -0.0000 -0.0000 -9.0204 3.5090 5.0735 4.3989 -0.0000 0.0000 -21.1078 -31.0386 -3.3562 -22.2741 0.0000 0.0000
 14.7085 16.6755 -22.7904 93.9084 11.4389 -90.1030 7.6562 -0.3287 -1.8252 39.5449 -5.3999 -2.2853 -27.0241 -0.3359 6.1263 -1.2593 -66.7274 -35.0955 -32.8313 -0.0000 6.0726 1.4249 -0.5024 70.5819 33.1476 -0.0000 26.2537 8.2122 -5.6544 -8.1894 -34.4209 54.1807 35.7215 42.7139 0.0000 26.1231 -3.5193 -1.3927 -68.4364 32.8623 0.0000 -24.3270 -11.0819 1.1417 -3.1424 6.8463 0.0000 0.0000 -7.4025 27.9522 2.4012 -36.4106 -0.0000 -0.0000 -9.1771 3.4435 5.0198 4.4690 -0.0000 -0.0000 -20.7407 -30.9590 -3.3049 -22.5323 0.0000 -0.0000
 14.6559 16.8398 -22.7703 93.7627 11.6894 -89.9807 8.1295 -0.2688 -1.9475 39.2786 -5.2977 -2.2374 -27.3480 -0.8386 6.0711 -1.0712 -67.1734 -34.7690 -30.9638 -0.0000 5.3807 1.2813 -0.4467 70.7816 33.1476 -0.0000 26.2537 7.8026 -5.2447 -8.3104 -34.8363 54.6995 36.0220 40.9679 0.0000 25.7054 -3.2324 -1.2631 -68.6779 32.8623 0.0000 -24.3270 -11.1607 1.4224 -3.1517 6.9776 0.0000 0.0000 -7.0586 27.6332 2.4478 -36.8816 -0.0000 0.0000 -9.2848 3.4358 4.9760 4.5754 0.0000 -0.0000 -20.3391 -30.9640 -3.2199 -22.8699 -0.0000 0.0000
 14.6033 17.0170 -22.7500 93.5903 11.7796 -89.8005 8.4146 -0.2530 -2.1716 39.0435 -5.1620 -2.1775 -27.6446 -1.3406 6.1634 -1.4103 -67.5109 -35.0482 -29.0411 -0.0000 4.7679 1.3633 -0.4779 70.6865 33.1476 -0.0000 26.2537 7.4998 -4.7778 -8.3894 -35.4603 55.2273 36.4659 39.0978 0.0000 25.2813 -3.0861 -1.1706 -69.2477 32.8623 0.0000 -24.3270 -11.3833 1.4341 -3.2286 7.0172 0.0000 0.0000 -6.6283 27.7583 2.5150 -36.6603 -0.0000 0.0000 -9.5792 3.4508 4.8801 4.6962 -0.0000 -0.0000 -19.9190 -30.9232 -3.1809 -23.2100 -0.0000 -0.0000
